<mxfile host="app.diagrams.net" agent="Mozilla/5.0 (Windows NT 10.0; Win64; x64) AppleWebKit/537.36 (KHTML, like Gecko) Chrome/137.0.0.0 Safari/537.36" version="27.1.5">
  <diagram id="Ht1M8jgEwFfnCIfOTk4-" name="Page-1">
    <mxGraphModel grid="1" page="1" gridSize="10" guides="1" tooltips="1" connect="1" arrows="1" fold="1" pageScale="1" pageWidth="1169" pageHeight="827" math="0" shadow="0">
      <root>
        <mxCell id="0" />
        <mxCell id="1" parent="0" />
        <mxCell id="Frbwt3UBQ2iBkfR_538B-99" value="AWS Cloud" style="sketch=0;outlineConnect=0;gradientColor=none;html=1;whiteSpace=wrap;fontSize=12;fontStyle=0;shape=mxgraph.aws4.group;grIcon=mxgraph.aws4.group_aws_cloud;strokeColor=#858B94;fillColor=none;verticalAlign=top;align=left;spacingLeft=30;fontColor=#858B94;dashed=0;movable=0;resizable=0;rotatable=0;deletable=0;editable=0;locked=1;connectable=0;" vertex="1" parent="1">
          <mxGeometry x="-2638" y="-1850" width="2126" height="1350" as="geometry" />
        </mxCell>
        <mxCell id="-aCeqqIfO0enCIioIw_w-8" value="" style="rounded=1;whiteSpace=wrap;html=1;" vertex="1" parent="1">
          <mxGeometry x="-912" y="-1630" width="372" height="150" as="geometry" />
        </mxCell>
        <mxCell id="Frbwt3UBQ2iBkfR_538B-216" value="VPC" style="sketch=0;outlineConnect=0;gradientColor=none;html=1;whiteSpace=wrap;fontSize=12;fontStyle=0;shape=mxgraph.aws4.group;grIcon=mxgraph.aws4.group_vpc;strokeColor=#879196;fillColor=none;verticalAlign=top;align=left;spacingLeft=30;fontColor=#879196;dashed=0;" vertex="1" parent="1">
          <mxGeometry x="-1640" y="-1730" width="490" height="840" as="geometry" />
        </mxCell>
        <mxCell id="Frbwt3UBQ2iBkfR_538B-117" style="edgeStyle=orthogonalEdgeStyle;rounded=0;orthogonalLoop=1;jettySize=auto;html=1;" edge="1" parent="1" source="Frbwt3UBQ2iBkfR_538B-102" target="Frbwt3UBQ2iBkfR_538B-112">
          <mxGeometry relative="1" as="geometry" />
        </mxCell>
        <mxCell id="UEzPUAAOIrF-is8g5C7q-137" value="" style="edgeStyle=orthogonalEdgeStyle;rounded=0;orthogonalLoop=1;jettySize=auto;html=1;startArrow=none;startFill=0;endArrow=open;endFill=0;strokeWidth=2;strokeColor=#808080;" edge="1" parent="1" source="UEzPUAAOIrF-is8g5C7q-117" target="UEzPUAAOIrF-is8g5C7q-118">
          <mxGeometry relative="1" as="geometry" />
        </mxCell>
        <mxCell id="-aCeqqIfO0enCIioIw_w-9" style="edgeStyle=orthogonalEdgeStyle;rounded=0;orthogonalLoop=1;jettySize=auto;html=1;" edge="1" parent="1" source="UEzPUAAOIrF-is8g5C7q-116" target="UEzPUAAOIrF-is8g5C7q-117">
          <mxGeometry relative="1" as="geometry" />
        </mxCell>
        <mxCell id="UEzPUAAOIrF-is8g5C7q-116" value="Amazon S3" style="outlineConnect=0;fontColor=#232F3E;gradientColor=#60A337;gradientDirection=north;fillColor=#277116;strokeColor=#ffffff;dashed=0;verticalLabelPosition=bottom;verticalAlign=top;align=center;html=1;fontSize=12;fontStyle=0;aspect=fixed;shape=mxgraph.aws4.resourceIcon;resIcon=mxgraph.aws4.s3;labelBackgroundColor=#ffffff;" vertex="1" parent="1">
          <mxGeometry x="-879.9999999999998" y="-1604.5" width="78" height="78" as="geometry" />
        </mxCell>
        <mxCell id="UEzPUAAOIrF-is8g5C7q-117" value="AWS Glue" style="outlineConnect=0;fontColor=#232F3E;gradientColor=#945DF2;gradientDirection=north;fillColor=#5A30B5;strokeColor=#ffffff;dashed=0;verticalLabelPosition=bottom;verticalAlign=top;align=center;html=1;fontSize=12;fontStyle=0;aspect=fixed;shape=mxgraph.aws4.resourceIcon;resIcon=mxgraph.aws4.glue;labelBackgroundColor=#ffffff;" vertex="1" parent="1">
          <mxGeometry x="-759.9999999999998" y="-1604.5" width="78" height="78" as="geometry" />
        </mxCell>
        <mxCell id="UEzPUAAOIrF-is8g5C7q-118" value="Amazon Athena" style="outlineConnect=0;fontColor=#232F3E;gradientColor=#945DF2;gradientDirection=north;fillColor=#5A30B5;strokeColor=#ffffff;dashed=0;verticalLabelPosition=bottom;verticalAlign=top;align=center;html=1;fontSize=12;fontStyle=0;aspect=fixed;shape=mxgraph.aws4.resourceIcon;resIcon=mxgraph.aws4.athena;labelBackgroundColor=#ffffff;" vertex="1" parent="1">
          <mxGeometry x="-630" y="-1604.5" width="78" height="78" as="geometry" />
        </mxCell>
        <mxCell id="Frbwt3UBQ2iBkfR_538B-74" value="" style="group" connectable="0" vertex="1" parent="1">
          <mxGeometry x="-2922" y="-1500" width="247.3" height="78" as="geometry" />
        </mxCell>
        <mxCell id="Frbwt3UBQ2iBkfR_538B-73" style="edgeStyle=orthogonalEdgeStyle;rounded=0;orthogonalLoop=1;jettySize=auto;html=1;" edge="1" parent="Frbwt3UBQ2iBkfR_538B-74" source="Frbwt3UBQ2iBkfR_538B-70" target="Frbwt3UBQ2iBkfR_538B-72">
          <mxGeometry relative="1" as="geometry" />
        </mxCell>
        <mxCell id="Frbwt3UBQ2iBkfR_538B-70" value="" style="sketch=0;outlineConnect=0;fontColor=#232F3E;gradientColor=none;fillColor=#232F3D;strokeColor=none;dashed=0;verticalLabelPosition=bottom;verticalAlign=top;align=center;html=1;fontSize=12;fontStyle=0;aspect=fixed;pointerEvents=1;shape=mxgraph.aws4.users;" vertex="1" parent="Frbwt3UBQ2iBkfR_538B-74">
          <mxGeometry width="78" height="78" as="geometry" />
        </mxCell>
        <mxCell id="Frbwt3UBQ2iBkfR_538B-72" value="" style="sketch=0;verticalLabelPosition=bottom;sketch=0;aspect=fixed;html=1;verticalAlign=top;strokeColor=none;fillColor=#000000;align=center;outlineConnect=0;pointerEvents=1;shape=mxgraph.citrix2.devices;" vertex="1" parent="Frbwt3UBQ2iBkfR_538B-74">
          <mxGeometry x="134" y="14" width="113.3" height="50" as="geometry" />
        </mxCell>
        <mxCell id="Frbwt3UBQ2iBkfR_538B-121" style="edgeStyle=orthogonalEdgeStyle;rounded=0;orthogonalLoop=1;jettySize=auto;html=1;" edge="1" parent="1" source="Frbwt3UBQ2iBkfR_538B-100">
          <mxGeometry relative="1" as="geometry">
            <mxPoint x="-1975" y="-1560.0000000000002" as="targetPoint" />
          </mxGeometry>
        </mxCell>
        <mxCell id="Frbwt3UBQ2iBkfR_538B-163" style="edgeStyle=orthogonalEdgeStyle;rounded=0;orthogonalLoop=1;jettySize=auto;html=1;" edge="1" parent="1" source="Frbwt3UBQ2iBkfR_538B-100" target="Frbwt3UBQ2iBkfR_538B-158">
          <mxGeometry relative="1" as="geometry" />
        </mxCell>
        <mxCell id="Frbwt3UBQ2iBkfR_538B-100" value="&lt;br&gt;&lt;br&gt;&lt;br&gt;Monitorar:&lt;br&gt;&lt;br&gt;Erros 4xx, 5xx e latÃªncia" style="outlineConnect=0;fontColor=#232F3E;gradientColor=#945DF2;gradientDirection=north;fillColor=#5A30B5;strokeColor=#ffffff;dashed=0;verticalLabelPosition=bottom;verticalAlign=top;align=center;html=1;fontSize=12;fontStyle=0;aspect=fixed;shape=mxgraph.aws4.resourceIcon;resIcon=mxgraph.aws4.api_gateway;labelBackgroundColor=#ffffff;" vertex="1" parent="1">
          <mxGeometry x="-2014" y="-1489" width="78" height="78" as="geometry" />
        </mxCell>
        <mxCell id="Frbwt3UBQ2iBkfR_538B-108" value="" style="group" connectable="0" vertex="1" parent="1">
          <mxGeometry x="-2610" y="-880" width="78" height="188" as="geometry" />
        </mxCell>
        <mxCell id="Frbwt3UBQ2iBkfR_538B-104" value="Cost Explorer" style="sketch=0;points=[[0,0,0],[0.25,0,0],[0.5,0,0],[0.75,0,0],[1,0,0],[0,1,0],[0.25,1,0],[0.5,1,0],[0.75,1,0],[1,1,0],[0,0.25,0],[0,0.5,0],[0,0.75,0],[1,0.25,0],[1,0.5,0],[1,0.75,0]];outlineConnect=0;fontColor=#232F3E;fillColor=#7AA116;strokeColor=#ffffff;dashed=0;verticalLabelPosition=bottom;verticalAlign=top;align=center;html=1;fontSize=12;fontStyle=0;aspect=fixed;shape=mxgraph.aws4.resourceIcon;resIcon=mxgraph.aws4.cost_explorer;" vertex="1" parent="Frbwt3UBQ2iBkfR_538B-108">
          <mxGeometry width="78" height="78" as="geometry" />
        </mxCell>
        <mxCell id="Frbwt3UBQ2iBkfR_538B-107" value="Saving plans" style="sketch=0;points=[[0,0,0],[0.25,0,0],[0.5,0,0],[0.75,0,0],[1,0,0],[0,1,0],[0.25,1,0],[0.5,1,0],[0.75,1,0],[1,1,0],[0,0.25,0],[0,0.5,0],[0,0.75,0],[1,0.25,0],[1,0.5,0],[1,0.75,0]];outlineConnect=0;fontColor=#232F3E;fillColor=#7AA116;strokeColor=#ffffff;dashed=0;verticalLabelPosition=bottom;verticalAlign=top;align=center;html=1;fontSize=12;fontStyle=0;aspect=fixed;shape=mxgraph.aws4.resourceIcon;resIcon=mxgraph.aws4.savings_plans;" vertex="1" parent="Frbwt3UBQ2iBkfR_538B-108">
          <mxGeometry y="110" width="78" height="78" as="geometry" />
        </mxCell>
        <mxCell id="Frbwt3UBQ2iBkfR_538B-110" value="Controle de gastos com Saving plans e Cost explorer" style="text;html=1;align=center;verticalAlign=middle;whiteSpace=wrap;rounded=0;" vertex="1" parent="1">
          <mxGeometry x="-2498" y="-873" width="100" height="64" as="geometry" />
        </mxCell>
        <mxCell id="Frbwt3UBQ2iBkfR_538B-109" style="edgeStyle=orthogonalEdgeStyle;rounded=0;orthogonalLoop=1;jettySize=auto;html=1;" edge="1" parent="1" source="Frbwt3UBQ2iBkfR_538B-104" target="Frbwt3UBQ2iBkfR_538B-110">
          <mxGeometry relative="1" as="geometry">
            <mxPoint x="-2460" y="-841" as="targetPoint" />
          </mxGeometry>
        </mxCell>
        <mxCell id="Frbwt3UBQ2iBkfR_538B-111" style="edgeStyle=orthogonalEdgeStyle;rounded=0;orthogonalLoop=1;jettySize=auto;html=1;entryX=0.25;entryY=1;entryDx=0;entryDy=0;" edge="1" parent="1" source="Frbwt3UBQ2iBkfR_538B-107" target="Frbwt3UBQ2iBkfR_538B-110">
          <mxGeometry relative="1" as="geometry" />
        </mxCell>
        <mxCell id="Frbwt3UBQ2iBkfR_538B-116" value="" style="group" connectable="0" vertex="1" parent="1">
          <mxGeometry x="-2240" y="-1660" width="78" height="249" as="geometry" />
        </mxCell>
        <mxCell id="Frbwt3UBQ2iBkfR_538B-112" value="CloudFront" style="sketch=0;points=[[0,0,0],[0.25,0,0],[0.5,0,0],[0.75,0,0],[1,0,0],[0,1,0],[0.25,1,0],[0.5,1,0],[0.75,1,0],[1,1,0],[0,0.25,0],[0,0.5,0],[0,0.75,0],[1,0.25,0],[1,0.5,0],[1,0.75,0]];outlineConnect=0;fontColor=#232F3E;fillColor=#8C4FFF;strokeColor=#ffffff;dashed=0;verticalLabelPosition=bottom;verticalAlign=top;align=center;html=1;fontSize=12;fontStyle=0;aspect=fixed;shape=mxgraph.aws4.resourceIcon;resIcon=mxgraph.aws4.cloudfront;" vertex="1" parent="Frbwt3UBQ2iBkfR_538B-116">
          <mxGeometry y="171" width="78" height="78" as="geometry" />
        </mxCell>
        <mxCell id="Frbwt3UBQ2iBkfR_538B-115" style="edgeStyle=orthogonalEdgeStyle;rounded=0;orthogonalLoop=1;jettySize=auto;html=1;" edge="1" parent="Frbwt3UBQ2iBkfR_538B-116" source="Frbwt3UBQ2iBkfR_538B-114" target="Frbwt3UBQ2iBkfR_538B-112">
          <mxGeometry relative="1" as="geometry" />
        </mxCell>
        <mxCell id="Frbwt3UBQ2iBkfR_538B-114" value="" style="sketch=0;points=[[0,0,0],[0.25,0,0],[0.5,0,0],[0.75,0,0],[1,0,0],[0,1,0],[0.25,1,0],[0.5,1,0],[0.75,1,0],[1,1,0],[0,0.25,0],[0,0.5,0],[0,0.75,0],[1,0.25,0],[1,0.5,0],[1,0.75,0]];outlineConnect=0;fontColor=#232F3E;fillColor=#7AA116;strokeColor=#ffffff;dashed=0;verticalLabelPosition=bottom;verticalAlign=top;align=center;html=1;fontSize=12;fontStyle=0;aspect=fixed;shape=mxgraph.aws4.resourceIcon;resIcon=mxgraph.aws4.s3;" vertex="1" parent="Frbwt3UBQ2iBkfR_538B-116">
          <mxGeometry width="78" height="78" as="geometry" />
        </mxCell>
        <mxCell id="Frbwt3UBQ2iBkfR_538B-118" style="edgeStyle=orthogonalEdgeStyle;rounded=0;orthogonalLoop=1;jettySize=auto;html=1;entryX=0;entryY=0.5;entryDx=0;entryDy=0;" edge="1" parent="1" source="Frbwt3UBQ2iBkfR_538B-72" target="Frbwt3UBQ2iBkfR_538B-102">
          <mxGeometry relative="1" as="geometry" />
        </mxCell>
        <mxCell id="Frbwt3UBQ2iBkfR_538B-102" value="" style="rounded=0;whiteSpace=wrap;html=1;dashed=1;fontSize=15;container=0;" vertex="1" parent="1">
          <mxGeometry x="-2590" y="-1690" width="130" height="480" as="geometry" />
        </mxCell>
        <mxCell id="Frbwt3UBQ2iBkfR_538B-77" value="" style="sketch=0;points=[[0,0,0],[0.25,0,0],[0.5,0,0],[0.75,0,0],[1,0,0],[0,1,0],[0.25,1,0],[0.5,1,0],[0.75,1,0],[1,1,0],[0,0.25,0],[0,0.5,0],[0,0.75,0],[1,0.25,0],[1,0.5,0],[1,0.75,0]];outlineConnect=0;fontColor=#232F3E;fillColor=#8C4FFF;strokeColor=#ffffff;dashed=0;verticalLabelPosition=bottom;verticalAlign=top;align=center;html=1;fontSize=15;fontStyle=0;aspect=fixed;shape=mxgraph.aws4.resourceIcon;resIcon=mxgraph.aws4.route_53;container=0;" vertex="1" parent="1">
          <mxGeometry x="-2571" y="-1550" width="78" height="78" as="geometry" />
        </mxCell>
        <mxCell id="Frbwt3UBQ2iBkfR_538B-80" value="AWS Shield" style="sketch=0;outlineConnect=0;fontColor=#232F3E;gradientColor=none;strokeColor=#ffffff;fillColor=#232F3E;dashed=0;verticalLabelPosition=middle;verticalAlign=bottom;align=center;html=1;whiteSpace=wrap;fontSize=15;fontStyle=1;spacing=3;shape=mxgraph.aws4.productIcon;prIcon=mxgraph.aws4.shield;container=0;" vertex="1" parent="1">
          <mxGeometry x="-2571" y="-1670" width="80" height="100" as="geometry" />
        </mxCell>
        <mxCell id="Frbwt3UBQ2iBkfR_538B-79" value="" style="sketch=0;points=[[0,0,0],[0.25,0,0],[0.5,0,0],[0.75,0,0],[1,0,0],[0,1,0],[0.25,1,0],[0.5,1,0],[0.75,1,0],[1,1,0],[0,0.25,0],[0,0.5,0],[0,0.75,0],[1,0.25,0],[1,0.5,0],[1,0.75,0]];outlineConnect=0;fontColor=#232F3E;fillColor=#DD344C;strokeColor=#ffffff;dashed=0;verticalLabelPosition=bottom;verticalAlign=top;align=center;html=1;fontSize=15;fontStyle=0;aspect=fixed;shape=mxgraph.aws4.resourceIcon;resIcon=mxgraph.aws4.cognito;container=0;" vertex="1" parent="1">
          <mxGeometry x="-2571" y="-1440" width="78" height="78" as="geometry" />
        </mxCell>
        <mxCell id="Frbwt3UBQ2iBkfR_538B-101" value="WAF" style="sketch=0;points=[[0,0,0],[0.25,0,0],[0.5,0,0],[0.75,0,0],[1,0,0],[0,1,0],[0.25,1,0],[0.5,1,0],[0.75,1,0],[1,1,0],[0,0.25,0],[0,0.5,0],[0,0.75,0],[1,0.25,0],[1,0.5,0],[1,0.75,0]];outlineConnect=0;fontColor=#232F3E;fillColor=#DD344C;strokeColor=#ffffff;dashed=0;verticalLabelPosition=bottom;verticalAlign=top;align=center;html=1;fontSize=15;fontStyle=0;aspect=fixed;shape=mxgraph.aws4.resourceIcon;resIcon=mxgraph.aws4.waf;container=0;" vertex="1" parent="1">
          <mxGeometry x="-2569" y="-1329" width="78" height="78" as="geometry" />
        </mxCell>
        <mxCell id="Frbwt3UBQ2iBkfR_538B-106" value="Router 54 responsÃ¡vel pelo DNS&lt;br&gt;&lt;br&gt;O shiled e o WAF responsÃ¡veis pela camada de SeguranÃ§a contra ataques e tentativa fraude" style="text;html=1;align=center;verticalAlign=middle;whiteSpace=wrap;rounded=0;container=0;" vertex="1" parent="1">
          <mxGeometry x="-2614.5" y="-1190" width="179" height="120" as="geometry" />
        </mxCell>
        <mxCell id="Frbwt3UBQ2iBkfR_538B-123" value="Rotas de compras&amp;nbsp;&lt;br&gt;e Pedidos de Reserva" style="text;html=1;align=center;verticalAlign=middle;whiteSpace=wrap;rounded=0;" vertex="1" parent="1">
          <mxGeometry x="-2050" y="-1660" width="150" height="80" as="geometry" />
        </mxCell>
        <mxCell id="Frbwt3UBQ2iBkfR_538B-124" style="edgeStyle=orthogonalEdgeStyle;rounded=0;orthogonalLoop=1;jettySize=auto;html=1;" edge="1" parent="1" source="Frbwt3UBQ2iBkfR_538B-112" target="Frbwt3UBQ2iBkfR_538B-100">
          <mxGeometry relative="1" as="geometry" />
        </mxCell>
        <mxCell id="Frbwt3UBQ2iBkfR_538B-152" style="edgeStyle=orthogonalEdgeStyle;rounded=0;orthogonalLoop=1;jettySize=auto;html=1;" edge="1" parent="1" source="Frbwt3UBQ2iBkfR_538B-133" target="Frbwt3UBQ2iBkfR_538B-151">
          <mxGeometry relative="1" as="geometry" />
        </mxCell>
        <mxCell id="Frbwt3UBQ2iBkfR_538B-156" style="edgeStyle=orthogonalEdgeStyle;rounded=0;orthogonalLoop=1;jettySize=auto;html=1;" edge="1" parent="1" source="Frbwt3UBQ2iBkfR_538B-133" target="Frbwt3UBQ2iBkfR_538B-154">
          <mxGeometry relative="1" as="geometry">
            <Array as="points">
              <mxPoint x="-1170" y="-1503.5" />
              <mxPoint x="-1170" y="-1503.5" />
            </Array>
          </mxGeometry>
        </mxCell>
        <mxCell id="-aCeqqIfO0enCIioIw_w-2" style="edgeStyle=orthogonalEdgeStyle;rounded=0;orthogonalLoop=1;jettySize=auto;html=1;" edge="1" parent="1" source="Frbwt3UBQ2iBkfR_538B-133" target="-aCeqqIfO0enCIioIw_w-1">
          <mxGeometry relative="1" as="geometry">
            <Array as="points">
              <mxPoint x="-1480" y="-910" />
              <mxPoint x="-1480" y="-910" />
            </Array>
          </mxGeometry>
        </mxCell>
        <mxCell id="Frbwt3UBQ2iBkfR_538B-133" value="ECS" style="swimlane;whiteSpace=wrap;html=1;" vertex="1" parent="1">
          <mxGeometry x="-1540" y="-1654" width="300" height="690" as="geometry" />
        </mxCell>
        <mxCell id="Frbwt3UBQ2iBkfR_538B-130" value="" style="sketch=0;points=[[0,0,0],[0.25,0,0],[0.5,0,0],[0.75,0,0],[1,0,0],[0,1,0],[0.25,1,0],[0.5,1,0],[0.75,1,0],[1,1,0],[0,0.25,0],[0,0.5,0],[0,0.75,0],[1,0.25,0],[1,0.5,0],[1,0.75,0]];outlineConnect=0;fontColor=#232F3E;fillColor=#ED7100;strokeColor=#ffffff;dashed=0;verticalLabelPosition=bottom;verticalAlign=top;align=center;html=1;fontSize=12;fontStyle=0;aspect=fixed;shape=mxgraph.aws4.resourceIcon;resIcon=mxgraph.aws4.fargate;" vertex="1" parent="Frbwt3UBQ2iBkfR_538B-133">
          <mxGeometry width="50" height="50" as="geometry" />
        </mxCell>
        <mxCell id="Frbwt3UBQ2iBkfR_538B-134" value="Eventos" style="sketch=0;outlineConnect=0;fontColor=#232F3E;gradientColor=none;fillColor=#ED7100;strokeColor=none;dashed=0;verticalLabelPosition=bottom;verticalAlign=top;align=center;html=1;fontSize=12;fontStyle=0;aspect=fixed;pointerEvents=1;shape=mxgraph.aws4.container_2;" vertex="1" parent="Frbwt3UBQ2iBkfR_538B-133">
          <mxGeometry x="99.28999999999999" y="60" width="101.42" height="65.5" as="geometry" />
        </mxCell>
        <mxCell id="Frbwt3UBQ2iBkfR_538B-178" value="Reservas" style="sketch=0;outlineConnect=0;fontColor=#232F3E;gradientColor=none;fillColor=#ED7100;strokeColor=none;dashed=0;verticalLabelPosition=bottom;verticalAlign=top;align=center;html=1;fontSize=12;fontStyle=0;aspect=fixed;pointerEvents=1;shape=mxgraph.aws4.container_2;" vertex="1" parent="Frbwt3UBQ2iBkfR_538B-133">
          <mxGeometry x="99.28999999999996" y="190" width="101.42" height="65.5" as="geometry" />
        </mxCell>
        <mxCell id="Frbwt3UBQ2iBkfR_538B-179" value="Produtos" style="sketch=0;outlineConnect=0;fontColor=#232F3E;gradientColor=none;fillColor=#ED7100;strokeColor=none;dashed=0;verticalLabelPosition=bottom;verticalAlign=top;align=center;html=1;fontSize=12;fontStyle=0;aspect=fixed;pointerEvents=1;shape=mxgraph.aws4.container_2;" vertex="1" parent="Frbwt3UBQ2iBkfR_538B-133">
          <mxGeometry x="99.28999999999996" y="300" width="101.42" height="65.5" as="geometry" />
        </mxCell>
        <mxCell id="Frbwt3UBQ2iBkfR_538B-180" value="Lugares" style="sketch=0;outlineConnect=0;fontColor=#232F3E;gradientColor=none;fillColor=#ED7100;strokeColor=none;dashed=0;verticalLabelPosition=bottom;verticalAlign=top;align=center;html=1;fontSize=12;fontStyle=0;aspect=fixed;pointerEvents=1;shape=mxgraph.aws4.container_2;" vertex="1" parent="Frbwt3UBQ2iBkfR_538B-133">
          <mxGeometry x="99.28999999999996" y="410" width="101.42" height="65.5" as="geometry" />
        </mxCell>
        <mxCell id="Frbwt3UBQ2iBkfR_538B-187" value="Pagamentos" style="sketch=0;outlineConnect=0;fontColor=#232F3E;gradientColor=none;fillColor=#ED7100;strokeColor=none;dashed=0;verticalLabelPosition=bottom;verticalAlign=top;align=center;html=1;fontSize=12;fontStyle=0;aspect=fixed;pointerEvents=1;shape=mxgraph.aws4.container_2;" vertex="1" parent="Frbwt3UBQ2iBkfR_538B-133">
          <mxGeometry x="99.28999999999996" y="560" width="101.42" height="65.5" as="geometry" />
        </mxCell>
        <mxCell id="Frbwt3UBQ2iBkfR_538B-145" value="SQS FIFO" style="sketch=0;points=[[0,0,0],[0.25,0,0],[0.5,0,0],[0.75,0,0],[1,0,0],[0,1,0],[0.25,1,0],[0.5,1,0],[0.75,1,0],[1,1,0],[0,0.25,0],[0,0.5,0],[0,0.75,0],[1,0.25,0],[1,0.5,0],[1,0.75,0]];outlineConnect=0;fontColor=#232F3E;fillColor=#E7157B;strokeColor=#ffffff;dashed=0;verticalLabelPosition=bottom;verticalAlign=top;align=center;html=1;fontSize=12;fontStyle=1;aspect=fixed;shape=mxgraph.aws4.resourceIcon;resIcon=mxgraph.aws4.sqs;strokeWidth=6;" vertex="1" parent="1">
          <mxGeometry x="-1300" y="-888.5" width="78" height="78" as="geometry" />
        </mxCell>
        <mxCell id="Frbwt3UBQ2iBkfR_538B-153" style="edgeStyle=orthogonalEdgeStyle;rounded=0;orthogonalLoop=1;jettySize=auto;html=1;" edge="1" parent="1" source="Frbwt3UBQ2iBkfR_538B-146" target="Frbwt3UBQ2iBkfR_538B-151">
          <mxGeometry relative="1" as="geometry" />
        </mxCell>
        <mxCell id="Frbwt3UBQ2iBkfR_538B-159" style="edgeStyle=orthogonalEdgeStyle;rounded=0;orthogonalLoop=1;jettySize=auto;html=1;" edge="1" parent="1" source="Frbwt3UBQ2iBkfR_538B-146">
          <mxGeometry relative="1" as="geometry">
            <mxPoint x="-888" y="-849.5" as="targetPoint" />
          </mxGeometry>
        </mxCell>
        <mxCell id="Frbwt3UBQ2iBkfR_538B-192" style="edgeStyle=orthogonalEdgeStyle;rounded=0;orthogonalLoop=1;jettySize=auto;html=1;" edge="1" parent="1" source="Frbwt3UBQ2iBkfR_538B-146" target="Frbwt3UBQ2iBkfR_538B-191">
          <mxGeometry relative="1" as="geometry" />
        </mxCell>
        <mxCell id="Frbwt3UBQ2iBkfR_538B-146" value="Confrima pagamento" style="outlineConnect=0;dashed=0;verticalLabelPosition=bottom;verticalAlign=top;align=center;html=1;shape=mxgraph.aws3.lambda_function;fillColor=#F58534;gradientColor=none;" vertex="1" parent="1">
          <mxGeometry x="-1080" y="-885.5" width="69" height="72" as="geometry" />
        </mxCell>
        <mxCell id="Frbwt3UBQ2iBkfR_538B-147" style="edgeStyle=orthogonalEdgeStyle;rounded=0;orthogonalLoop=1;jettySize=auto;html=1;entryX=0;entryY=0.5;entryDx=0;entryDy=0;entryPerimeter=0;" edge="1" parent="1" source="Frbwt3UBQ2iBkfR_538B-145" target="Frbwt3UBQ2iBkfR_538B-146">
          <mxGeometry relative="1" as="geometry" />
        </mxCell>
        <mxCell id="Frbwt3UBQ2iBkfR_538B-89" value="Camanda NotificaÃ§Ã£o" style="swimlane;whiteSpace=wrap;html=1;movable=1;resizable=1;rotatable=1;deletable=1;editable=1;locked=0;connectable=1;container=0;" vertex="1" parent="1">
          <mxGeometry x="-893" y="-938.5" width="200" height="200" as="geometry" />
        </mxCell>
        <mxCell id="Frbwt3UBQ2iBkfR_538B-148" value="SES" style="sketch=0;points=[[0,0,0],[0.25,0,0],[0.5,0,0],[0.75,0,0],[1,0,0],[0,1,0],[0.25,1,0],[0.5,1,0],[0.75,1,0],[1,1,0],[0,0.25,0],[0,0.5,0],[0,0.75,0],[1,0.25,0],[1,0.5,0],[1,0.75,0]];outlineConnect=0;fontColor=#232F3E;gradientColor=#4D72F3;gradientDirection=north;fillColor=#3334B9;strokeColor=#ffffff;dashed=0;verticalLabelPosition=bottom;verticalAlign=top;align=center;html=1;fontSize=12;fontStyle=0;aspect=fixed;shape=mxgraph.aws4.resourceIcon;resIcon=mxgraph.aws4.simple_email_service;container=0;" vertex="1" parent="Frbwt3UBQ2iBkfR_538B-89">
          <mxGeometry x="61" y="61" width="78" height="78" as="geometry" />
        </mxCell>
        <mxCell id="-aCeqqIfO0enCIioIw_w-11" style="edgeStyle=orthogonalEdgeStyle;rounded=0;orthogonalLoop=1;jettySize=auto;html=1;" edge="1" parent="1" source="Frbwt3UBQ2iBkfR_538B-151" target="-aCeqqIfO0enCIioIw_w-10">
          <mxGeometry relative="1" as="geometry">
            <Array as="points">
              <mxPoint x="-870" y="-1309" />
            </Array>
          </mxGeometry>
        </mxCell>
        <mxCell id="Frbwt3UBQ2iBkfR_538B-151" value="" style="sketch=0;outlineConnect=0;fontColor=#232F3E;gradientColor=none;fillColor=#C925D1;strokeColor=none;dashed=0;verticalLabelPosition=bottom;verticalAlign=top;align=center;html=1;fontSize=12;fontStyle=0;aspect=fixed;pointerEvents=1;shape=mxgraph.aws4.rds_instance_alt;" vertex="1" parent="1">
          <mxGeometry x="-1084.5" y="-1348" width="78" height="78" as="geometry" />
        </mxCell>
        <mxCell id="Frbwt3UBQ2iBkfR_538B-154" value="Redis" style="sketch=0;outlineConnect=0;fontColor=#232F3E;gradientColor=none;fillColor=#C925D1;strokeColor=none;dashed=0;verticalLabelPosition=bottom;verticalAlign=top;align=center;html=1;fontSize=12;fontStyle=0;aspect=fixed;pointerEvents=1;shape=mxgraph.aws4.elasticache_for_redis;" vertex="1" parent="1">
          <mxGeometry x="-1106" y="-1545" width="78" height="69" as="geometry" />
        </mxCell>
        <mxCell id="-aCeqqIfO0enCIioIw_w-3" style="edgeStyle=orthogonalEdgeStyle;rounded=0;orthogonalLoop=1;jettySize=auto;html=1;" edge="1" parent="1" source="Frbwt3UBQ2iBkfR_538B-158">
          <mxGeometry relative="1" as="geometry">
            <mxPoint x="-1629.9999999999995" y="-1450" as="targetPoint" />
            <Array as="points">
              <mxPoint x="-1671" y="-1450" />
              <mxPoint x="-1630" y="-1449" />
            </Array>
          </mxGeometry>
        </mxCell>
        <mxCell id="Frbwt3UBQ2iBkfR_538B-158" value="" style="points=[];aspect=fixed;html=1;align=center;shadow=0;dashed=0;fillColor=#FF6A00;strokeColor=none;shape=mxgraph.alibaba_cloud.alb_application_load_balancer_02;" vertex="1" parent="1">
          <mxGeometry x="-1794" y="-1490.75" width="81.5" height="81.5" as="geometry" />
        </mxCell>
        <mxCell id="Frbwt3UBQ2iBkfR_538B-160" style="edgeStyle=orthogonalEdgeStyle;rounded=0;orthogonalLoop=1;jettySize=auto;html=1;exitX=0.25;exitY=0;exitDx=0;exitDy=0;entryX=0.137;entryY=0;entryDx=0;entryDy=0;entryPerimeter=0;" edge="1" parent="1" source="Frbwt3UBQ2iBkfR_538B-89" target="Frbwt3UBQ2iBkfR_538B-89">
          <mxGeometry relative="1" as="geometry" />
        </mxCell>
        <mxCell id="Frbwt3UBQ2iBkfR_538B-164" value="Balaceador de carga" style="text;html=1;align=center;verticalAlign=middle;whiteSpace=wrap;rounded=0;" vertex="1" parent="1">
          <mxGeometry x="-1783" y="-1392" width="60" height="30" as="geometry" />
        </mxCell>
        <mxCell id="Frbwt3UBQ2iBkfR_538B-172" value="" style="group" connectable="0" vertex="1" parent="1">
          <mxGeometry x="-2450" y="-700" width="380" height="160" as="geometry" />
        </mxCell>
        <mxCell id="Frbwt3UBQ2iBkfR_538B-161" value="CloudWatch" style="sketch=0;points=[[0,0,0],[0.25,0,0],[0.5,0,0],[0.75,0,0],[1,0,0],[0,1,0],[0.25,1,0],[0.5,1,0],[0.75,1,0],[1,1,0],[0,0.25,0],[0,0.5,0],[0,0.75,0],[1,0.25,0],[1,0.5,0],[1,0.75,0]];points=[[0,0,0],[0.25,0,0],[0.5,0,0],[0.75,0,0],[1,0,0],[0,1,0],[0.25,1,0],[0.5,1,0],[0.75,1,0],[1,1,0],[0,0.25,0],[0,0.5,0],[0,0.75,0],[1,0.25,0],[1,0.5,0],[1,0.75,0]];outlineConnect=0;fontColor=#232F3E;fillColor=#E7157B;strokeColor=#ffffff;dashed=0;verticalLabelPosition=bottom;verticalAlign=top;align=center;html=1;fontSize=12;fontStyle=0;aspect=fixed;shape=mxgraph.aws4.resourceIcon;resIcon=mxgraph.aws4.cloudwatch_2;container=0;" vertex="1" parent="Frbwt3UBQ2iBkfR_538B-172">
          <mxGeometry x="20" y="31" width="78" height="78" as="geometry" />
        </mxCell>
        <mxCell id="Frbwt3UBQ2iBkfR_538B-170" value="Observabilidade" style="swimlane;whiteSpace=wrap;html=1;container=0;" vertex="1" parent="Frbwt3UBQ2iBkfR_538B-172">
          <mxGeometry width="380" height="160" as="geometry" />
        </mxCell>
        <mxCell id="Frbwt3UBQ2iBkfR_538B-168" value="Metrics" style="sketch=0;outlineConnect=0;fontColor=#232F3E;gradientColor=none;fillColor=#E7157B;strokeColor=none;dashed=0;verticalLabelPosition=bottom;verticalAlign=top;align=center;html=1;fontSize=12;fontStyle=0;aspect=fixed;pointerEvents=1;shape=mxgraph.aws4.cloudwatch_metrics_insights;container=0;" vertex="1" parent="Frbwt3UBQ2iBkfR_538B-170">
          <mxGeometry x="280" y="31" width="77" height="78" as="geometry" />
        </mxCell>
        <mxCell id="Frbwt3UBQ2iBkfR_538B-167" value="AWS X-Ray" style="sketch=0;outlineConnect=0;fontColor=#232F3E;gradientColor=none;strokeColor=#ffffff;fillColor=#232F3E;dashed=0;verticalLabelPosition=middle;verticalAlign=bottom;align=center;html=1;whiteSpace=wrap;fontSize=10;fontStyle=1;spacing=3;shape=mxgraph.aws4.productIcon;prIcon=mxgraph.aws4.xray;container=0;" vertex="1" parent="Frbwt3UBQ2iBkfR_538B-170">
          <mxGeometry x="150" y="30" width="80" height="100" as="geometry" />
        </mxCell>
        <mxCell id="Frbwt3UBQ2iBkfR_538B-188" value="Pedidos de Reserva devem ter TLL (expiraÃ§Ã£o) de 15 minutos" style="text;html=1;align=center;verticalAlign=middle;whiteSpace=wrap;rounded=0;" vertex="1" parent="1">
          <mxGeometry x="-1218" y="-1464.25" width="190" height="72.25" as="geometry" />
        </mxCell>
        <mxCell id="Frbwt3UBQ2iBkfR_538B-191" value="Notas ficais da compra" style="sketch=0;points=[[0,0,0],[0.25,0,0],[0.5,0,0],[0.75,0,0],[1,0,0],[0,1,0],[0.25,1,0],[0.5,1,0],[0.75,1,0],[1,1,0],[0,0.25,0],[0,0.5,0],[0,0.75,0],[1,0.25,0],[1,0.5,0],[1,0.75,0]];outlineConnect=0;fontColor=#232F3E;fillColor=#7AA116;strokeColor=#ffffff;dashed=0;verticalLabelPosition=bottom;verticalAlign=top;align=center;html=1;fontSize=12;fontStyle=0;aspect=fixed;shape=mxgraph.aws4.resourceIcon;resIcon=mxgraph.aws4.s3;" vertex="1" parent="1">
          <mxGeometry x="-1084.5" y="-684" width="78" height="78" as="geometry" />
        </mxCell>
        <mxCell id="Frbwt3UBQ2iBkfR_538B-193" style="edgeStyle=orthogonalEdgeStyle;rounded=0;orthogonalLoop=1;jettySize=auto;html=1;" edge="1" parent="1" source="Frbwt3UBQ2iBkfR_538B-187" target="Frbwt3UBQ2iBkfR_538B-145">
          <mxGeometry relative="1" as="geometry" />
        </mxCell>
        <mxCell id="Frbwt3UBQ2iBkfR_538B-217" value="Multi AZ&lt;br&gt;Usando security groups e subnets&amp;nbsp;" style="text;html=1;align=center;verticalAlign=middle;whiteSpace=wrap;rounded=0;" vertex="1" parent="1">
          <mxGeometry x="-1331" y="-1720" width="181" height="30" as="geometry" />
        </mxCell>
        <mxCell id="Frbwt3UBQ2iBkfR_538B-218" value="Utilizar RDS proxy para grandes demandas de leitura e escrita" style="text;html=1;align=center;verticalAlign=middle;whiteSpace=wrap;rounded=0;" vertex="1" parent="1">
          <mxGeometry x="-1028" y="-1240" width="150" height="60" as="geometry" />
        </mxCell>
        <mxCell id="Frbwt3UBQ2iBkfR_538B-219" value="UtilizaÃ§Ã£o de Cache para dados de cadastro ou dados estaticos" style="text;html=1;align=center;verticalAlign=middle;whiteSpace=wrap;rounded=0;" vertex="1" parent="1">
          <mxGeometry x="-1122" y="-1610" width="153" height="50" as="geometry" />
        </mxCell>
        <mxCell id="Frbwt3UBQ2iBkfR_538B-220" value="UtilizaÃ§Ã£o do Cognito para autenticaÃ§Ã£o&amp;nbsp;" style="text;html=1;align=center;verticalAlign=middle;whiteSpace=wrap;rounded=0;" vertex="1" parent="1">
          <mxGeometry x="-2460" y="-1432" width="100" height="70" as="geometry" />
        </mxCell>
        <mxCell id="Frbwt3UBQ2iBkfR_538B-221" value="UtilizaÃ§Ã£o do X-ray, cloudwatch e alarmes Metricas&amp;nbsp;" style="text;html=1;align=center;verticalAlign=middle;whiteSpace=wrap;rounded=0;" vertex="1" parent="1">
          <mxGeometry x="-2290" y="-800" width="150" height="100" as="geometry" />
        </mxCell>
        <mxCell id="-aCeqqIfO0enCIioIw_w-1" value="AWS Secrets Manager" style="sketch=0;outlineConnect=0;fontColor=#232F3E;gradientColor=none;strokeColor=#ffffff;fillColor=#232F3E;dashed=0;verticalLabelPosition=middle;verticalAlign=bottom;align=center;html=1;whiteSpace=wrap;fontSize=10;fontStyle=1;spacing=3;shape=mxgraph.aws4.productIcon;prIcon=mxgraph.aws4.secrets_manager;" vertex="1" parent="1">
          <mxGeometry x="-1520" y="-780" width="80" height="110" as="geometry" />
        </mxCell>
        <mxCell id="-aCeqqIfO0enCIioIw_w-5" value="Sistema Externo de Pagamento" style="rounded=0;whiteSpace=wrap;html=1;" vertex="1" parent="1">
          <mxGeometry x="-1028" y="-1091.25" width="120" height="60" as="geometry" />
        </mxCell>
        <mxCell id="-aCeqqIfO0enCIioIw_w-6" style="edgeStyle=orthogonalEdgeStyle;rounded=0;orthogonalLoop=1;jettySize=auto;html=1;" edge="1" parent="1" source="Frbwt3UBQ2iBkfR_538B-187" target="-aCeqqIfO0enCIioIw_w-5">
          <mxGeometry relative="1" as="geometry" />
        </mxCell>
        <mxCell id="-aCeqqIfO0enCIioIw_w-7" value="Secrets para toda aplicaÃ§Ã£o" style="text;html=1;align=center;verticalAlign=middle;whiteSpace=wrap;rounded=0;" vertex="1" parent="1">
          <mxGeometry x="-1620" y="-760" width="60" height="30" as="geometry" />
        </mxCell>
        <mxCell id="-aCeqqIfO0enCIioIw_w-13" style="edgeStyle=orthogonalEdgeStyle;rounded=0;orthogonalLoop=1;jettySize=auto;html=1;" edge="1" parent="1" source="-aCeqqIfO0enCIioIw_w-10" target="UEzPUAAOIrF-is8g5C7q-116">
          <mxGeometry relative="1" as="geometry" />
        </mxCell>
        <mxCell id="-aCeqqIfO0enCIioIw_w-10" value="" style="sketch=0;points=[[0,0,0],[0.25,0,0],[0.5,0,0],[0.75,0,0],[1,0,0],[0,1,0],[0.25,1,0],[0.5,1,0],[0.75,1,0],[1,1,0],[0,0.25,0],[0,0.5,0],[0,0.75,0],[1,0.25,0],[1,0.5,0],[1,0.75,0]];outlineConnect=0;fontColor=#232F3E;fillColor=#C925D1;strokeColor=#ffffff;dashed=0;verticalLabelPosition=bottom;verticalAlign=top;align=center;html=1;fontSize=12;fontStyle=0;aspect=fixed;shape=mxgraph.aws4.resourceIcon;resIcon=mxgraph.aws4.database_migration_service;" vertex="1" parent="1">
          <mxGeometry x="-908" y="-1411" width="78" height="78" as="geometry" />
        </mxCell>
        <mxCell id="-aCeqqIfO0enCIioIw_w-14" value="AplicaÃ§Ã£o do AWS DMS para duplicar InformaÃ§Ãµes para uma camada SOR" style="text;html=1;align=center;verticalAlign=middle;whiteSpace=wrap;rounded=0;" vertex="1" parent="1">
          <mxGeometry x="-780" y="-1400" width="60" height="30" as="geometry" />
        </mxCell>
        <mxCell id="-aCeqqIfO0enCIioIw_w-15" value="" style="sketch=0;points=[[0,0,0],[0.25,0,0],[0.5,0,0],[0.75,0,0],[1,0,0],[0,1,0],[0.25,1,0],[0.5,1,0],[0.75,1,0],[1,1,0],[0,0.25,0],[0,0.5,0],[0,0.75,0],[1,0.25,0],[1,0.5,0],[1,0.75,0]];outlineConnect=0;fontColor=#232F3E;fillColor=#01A88D;strokeColor=#ffffff;dashed=0;verticalLabelPosition=bottom;verticalAlign=top;align=center;html=1;fontSize=12;fontStyle=0;aspect=fixed;shape=mxgraph.aws4.resourceIcon;resIcon=mxgraph.aws4.bedrock;" vertex="1" parent="1">
          <mxGeometry x="-1900" y="-1160" width="78" height="78" as="geometry" />
        </mxCell>
        <mxCell id="-aCeqqIfO0enCIioIw_w-17" style="edgeStyle=orthogonalEdgeStyle;rounded=0;orthogonalLoop=1;jettySize=auto;html=1;entryX=0.5;entryY=0;entryDx=0;entryDy=0;entryPerimeter=0;" edge="1" parent="1" source="Frbwt3UBQ2iBkfR_538B-179" target="-aCeqqIfO0enCIioIw_w-15">
          <mxGeometry relative="1" as="geometry">
            <Array as="points">
              <mxPoint x="-1860" y="-1290" />
              <mxPoint x="-1860" y="-1160" />
            </Array>
          </mxGeometry>
        </mxCell>
        <mxCell id="-aCeqqIfO0enCIioIw_w-18" value="AWS Bedrock vai fortalecer o uso de AI recomendando produtos com base na anÃ¡lise de perfil da pessoa" style="text;html=1;align=center;verticalAlign=middle;whiteSpace=wrap;rounded=0;" vertex="1" parent="1">
          <mxGeometry x="-1926.5" y="-1070" width="131" height="70" as="geometry" />
        </mxCell>
      </root>
    </mxGraphModel>
  </diagram>
</mxfile>
